# xmcd CD database file
#
# Track frame offsets:
#	150
#	20838
#	39855
#	67875
#	86830
#	111029
#	129134
#	147836
#	174774
#	200616
#	231100
#	256619
#
# Disc length: 3744 seconds
#
# Revision: 0
# Processed by: cddbd v1.5PL3 Copyright (c) Steve Scherf et al.
# Submitted via: CDex 1.51
#
DISCID=920e9e0c
DTITLE=Darrell Scott - Theatre of the Unheard
DYEAR=2003
DGENRE=Country
TTITLE0=East Of Gary
TTITLE1=Uncle Lloyd
TTITLE2=Day After Day
TTITLE3=6 O'clock In The Morning
TTITLE4=Miracle Of Living
TTITLE5=Full Light
TTITLE6=I Wann Be Free
TTITLE7=River Take Me
TTITLE8=Alton Air
TTITLE9=The Man Who Could Have Played Bass For Shanana
TTITLE10=After All
TTITLE11=10,000 Miles Away
EXTD=YEAR: 2003
EXTT0=
EXTT1=
EXTT2=
EXTT3=
EXTT4=
EXTT5=
EXTT6=
EXTT7=
EXTT8=
EXTT9=
EXTT10=
EXTT11=
PLAYORDER=
